<svg viewBox="0 0 450 295" xmlns="http://www.w3.org/2000/svg" width="450px">
  <defs>
    <style>
      line {
        stroke: #222;
        stroke-width: 1.5;
        stroke-linecap: round;
      }

      text {
        fill: black;
        stroke: none;
				font-size: 11px;
        font-family: sans-serif;
      }

      text a {
        text-decoration: underline;
      }

			text {
				text-anchor: start;
				dominant-baseline: middle;
			}
    </style>
  </defs>

  <marker id="arrowhead" markerWidth="7" markerHeight="4.9" refX="0" refY="2.45" orient="auto">
    <polygon fill="#000" points="0 0, 7 2.45, 0 4.9"/>
  </marker>

	<svg x="0" y="0">
    <g id="Icon-Resource/Application-Integration/Res_Amazon-Simple-Notification-Service_Topic_48" stroke="none" stroke-width="1" fill="none" fill-rule="evenodd">
      <path d="M44,38.5 L46,38.5 L46,36.5 L44,36.5 L44,38.5 Z M46,33 L46,34.5 L44,34.5 L44,34 L43.5,34 L43.5,32 L45,32 C45.553,32 46,32.447 46,33 L46,33 Z M13.5,34 L16.5,34 L16.5,32 L13.5,32 L13.5,34 Z M37.5,34 L40.5,34 L40.5,32 L37.5,32 L37.5,34 Z M19.5,34 L22.5,34 L22.5,32 L19.5,32 L19.5,34 Z M7.5,34 L10.5,34 L10.5,32 L7.5,32 L7.5,34 Z M31.5,34 L34.5,34 L34.5,32 L31.5,32 L31.5,34 Z M25.5,34 L28.5,34 L28.5,32 L25.5,32 L25.5,34 Z M3,32 L4.5,32 L4.5,34 L4,34 L4,34.5 L2,34.5 L2,33 C2,32.447 2.447,32 3,32 L3,32 Z M2,38.5 L4,38.5 L4,36.5 L2,36.5 L2,38.5 Z M4,41 L4.5,41 L4.5,43 L3,43 C2.447,43 2,42.553 2,42 L2,40.5 L4,40.5 L4,41 Z M19.5,43 L22.5,43 L22.5,41 L19.5,41 L19.5,43 Z M31.5,43 L34.5,43 L34.5,41 L31.5,41 L31.5,43 Z M37.5,43 L40.5,43 L40.5,41 L37.5,41 L37.5,43 Z M7.5,43 L10.5,43 L10.5,41 L7.5,41 L7.5,43 Z M25.5,43 L28.5,43 L28.5,41 L25.5,41 L25.5,43 Z M13.5,43 L16.5,43 L16.5,41 L13.5,41 L13.5,43 Z M44,40.5 L46,40.5 L46,42 C46,42.553 45.553,43 45,43 L43.5,43 L43.5,41 L44,41 L44,40.5 Z M44,25.5 L46,25.5 L46,23.5 L44,23.5 L44,25.5 Z M46,20 L46,21.5 L44,21.5 L44,21 L43.5,21 L43.5,19 L45,19 C45.553,19 46,19.447 46,20 L46,20 Z M31.5,21 L34.5,21 L34.5,19 L31.5,19 L31.5,21 Z M7.5,21 L10.5,21 L10.5,19 L7.5,19 L7.5,21 Z M37.5,21 L40.5,21 L40.5,19 L37.5,19 L37.5,21 Z M13.5,21 L16.5,21 L16.5,19 L13.5,19 L13.5,21 Z M19.5,21 L22.5,21 L22.5,19 L19.5,19 L19.5,21 Z M25.5,21 L28.5,21 L28.5,19 L25.5,19 L25.5,21 Z M3,19 L4.5,19 L4.5,21 L4,21 L4,21.5 L2,21.5 L2,20 C2,19.447 2.447,19 3,19 L3,19 Z M2,25.5 L4,25.5 L4,23.5 L2,23.5 L2,25.5 Z M4,28 L4.5,28 L4.5,30 L3,30 C2.447,30 2,29.553 2,29 L2,27.5 L4,27.5 L4,28 Z M19.5,30 L22.5,30 L22.5,28 L19.5,28 L19.5,30 Z M31.5,30 L34.5,30 L34.5,28 L31.5,28 L31.5,30 Z M7.5,30 L10.5,30 L10.5,28 L7.5,28 L7.5,30 Z M13.5,30 L16.5,30 L16.5,28 L13.5,28 L13.5,30 Z M37.5,30 L40.5,30 L40.5,28 L37.5,28 L37.5,30 Z M25.5,30 L28.5,30 L28.5,28 L25.5,28 L25.5,30 Z M44,27.5 L46,27.5 L46,29 C46,29.553 45.553,30 45,30 L43.5,30 L43.5,28 L44,28 L44,27.5 Z M4,15 L44,15 L44,7 L4,7 L4,15 Z M45,5 L3,5 C2.447,5 2,5.447 2,6 L2,16 C2,16.553 2.447,17 3,17 L45,17 C45.553,17 46,16.553 46,16 L46,6 C46,5.447 45.553,5 45,5 L45,5 Z" id="Amazon-Simple-Notification-Service_Topic_Resource-Icon_light-bg" fill="#B0084D"></path>
    </g>
	</svg>

  <text x="60" y="24" dy="-4"><a href="https://eu-west-1.console.aws.amazon.com/sns/v3/home?region=eu-west-1#/topic/arn:aws:sns:eu-west-1:299497370133:my-example-function-input">my-example-function-input</a></text>
	<text x="60" y="24" dy=" 8">(SNS topic)</text>

  <marker id="arrowhead" markerWidth="7" markerHeight="4.9" refX="0" refY="2.45" orient="auto">
    <polygon fill="#000" points="0 0, 7 2.45, 0 4.9"/>
  </marker>

  <path d="M 24 52 L 24 89" stroke="black"
  stroke-width="1.75" fill="none"  marker-end="url(#arrowhead)" />

  <path d="M 24 159 L 24 241" stroke="black"
  stroke-width="1.75" fill="none"  marker-end="url(#arrowhead)" />

  <path d="M 44 154 L 63 173" stroke="black"
  stroke-width="1.75" fill="none"  marker-end="url(#arrowhead)" />

  <text x="135" y="203" dy="-4"><a href='https://eu-west-1.console.aws.amazon.com/cloudwatch/home?region=eu-west-1#logsV2:log-groups/log-group/$252Faws$252Flambda$252Fmy-example-function'>/aws/lambda/my-example-function</a></text>
	<text x="135" y="203" dy=" 8">(CloudWatch log group)</text>

  <text x="60" y="129" dy="-4"><a href="https://eu-west-1.console.aws.amazon.com/lambda/home?region=eu-west-1#/functions/my-example-function?tab=code">my-example-function</a></text>
	<text x="60" y="129" dy=" 8">(Lambda function)</text>


	<svg x="0" y="105">
    <g id="Icon-Resource/Compute/Res_Amazon-Lambda_Lambda-Function_48" stroke="none" stroke-width="1" fill="none" fill-rule="evenodd">
        <path d="M24,44 C12.972,44 4,35.028 4,24 C4,12.972 12.972,4 24,4 C35.028,4 44,12.972 44,24 C44,35.028 35.028,44 24,44 L24,44 Z M24,2 C11.869,2 2,11.869 2,24 C2,36.131 11.869,46 24,46 C36.131,46 46,36.131 46,24 C46,11.869 36.131,2 24,2 L24,2 Z M17.231,35.25 L11.876,35.25 L18.221,21.959 L20.902,27.492 L17.231,35.25 Z M19.114,19.215 C18.946,18.87 18.597,18.651 18.214,18.651 L18.211,18.651 C17.826,18.652 17.477,18.874 17.312,19.221 L9.389,35.819 C9.24,36.129 9.262,36.493 9.445,36.783 C9.628,37.074 9.947,37.25 10.291,37.25 L17.864,37.25 C18.251,37.25 18.603,37.027 18.769,36.678 L22.915,27.915 C23.044,27.642 23.043,27.323 22.911,27.051 L19.114,19.215 Z M36.125,35.25 L30.673,35.25 L20.761,13.953 C20.597,13.601 20.243,13.375 19.854,13.375 L16.251,13.375 L16.255,9.25 L23.475,9.25 L33.339,30.545 C33.503,30.898 33.856,31.125 34.246,31.125 L36.125,31.125 L36.125,35.25 Z M37.125,29.125 L34.885,29.125 L25.021,7.83 C24.856,7.477 24.503,7.25 24.113,7.25 L15.256,7.25 C14.704,7.25 14.257,7.697 14.256,8.249 L14.25,14.374 C14.25,14.64 14.355,14.894 14.543,15.082 C14.73,15.27 14.984,15.375 15.25,15.375 L19.217,15.375 L29.129,36.672 C29.293,37.024 29.646,37.25 30.035,37.25 L37.125,37.25 C37.678,37.25 38.125,36.803 38.125,36.25 L38.125,30.125 C38.125,29.572 37.678,29.125 37.125,29.125 L37.125,29.125 Z" id="Amazon-Lambda-Lambda-Function_Resource-Icon_light-bg" fill="#D45B07"></path>
    </g>
	</svg>

  <text x="60" y="273" dy="-4"><a href="https://eu-west-1.console.aws.amazon.com/sqs/v2/home?region=eu-west-1#/queues/https%3A%2F%2Fsqs.eu-west-1.amazonaws.com%2F760097843905%2Fmy-example-function-output">my-example-function-output</a></text>
	<text x="60" y="273" dy=" 8">(SQS queue)</text>

	<svg x="75" y="179">
  <g id="Icon-Resource/Management-Governance/Res_Cloudwatch_Logs_48" stroke="none" stroke-width="1" fill="none" fill-rule="evenodd">
      <path d="M29.4998,17.0004 C26.2418,17.0004 23.4708,19.0924 22.4378,22.0004 L24.6068,22.0004 C25.5198,20.2224 27.3678,19.0004 29.4998,19.0004 C32.5318,19.0004 34.9998,21.4674 34.9998,24.5004 C34.9998,27.5324 32.5318,30.0004 29.4998,30.0004 C27.7958,30.0004 26.2708,29.2214 25.2608,28.0004 L22.8718,28.0004 C24.1318,30.3764 26.6288,32.0004 29.4998,32.0004 C33.6358,32.0004 36.9998,28.6364 36.9998,24.5004 C36.9998,20.3644 33.6358,17.0004 29.4998,17.0004 L29.4998,17.0004 Z M1.9998,33.0004 L14.9998,33.0004 L14.9998,31.0004 L1.9998,31.0004 L1.9998,33.0004 Z M1.9998,18.0004 L14.9998,18.0004 L14.9998,16.0004 L1.9998,16.0004 L1.9998,18.0004 Z M1.9998,26.0004 L28.9998,26.0004 L28.9998,24.0004 L1.9998,24.0004 L1.9998,26.0004 Z M43.8428,35.7384 L38.8178,31.2134 C38.3998,31.7924 37.9318,32.3304 37.4148,32.8214 L42.4118,37.3294 C42.8478,37.7224 43.5278,37.6874 43.9228,37.2494 C44.3148,36.8124 44.2798,36.1344 43.8428,35.7384 L43.8428,35.7384 Z M45.4088,38.5884 C44.8028,39.2594 43.9658,39.6004 43.1248,39.6004 C42.3938,39.6004 41.6588,39.3414 41.0738,38.8154 L35.8338,34.0894 C34.0168,35.2934 31.8398,36.0004 29.4998,36.0004 C24.3798,36.0004 20.0328,32.6344 18.5488,28.0004 L20.6768,28.0004 C22.0738,31.5094 25.4988,34.0004 29.4998,34.0004 C34.7378,34.0004 38.9998,29.7384 38.9998,24.5004 C38.9998,19.2624 34.7378,15.0004 29.4998,15.0004 C25.1278,15.0004 21.4458,17.9734 20.3448,22.0004 L18.2818,22.0004 C19.4278,16.8574 24.0188,13.0004 29.4998,13.0004 C35.8408,13.0004 40.9998,18.1584 40.9998,24.5004 C40.9998,26.2774 40.5828,27.9554 39.8588,29.4604 L45.1828,34.2544 C46.4368,35.3884 46.5378,37.3314 45.4088,38.5884 L45.4088,38.5884 Z M1.9998,41.0004 L20.9998,41.0004 L20.9998,39.0004 L1.9998,39.0004 L1.9998,41.0004 Z M1.9998,10.0004 L22.9998,10.0004 L22.9998,8.0004 L1.9998,8.0004 L1.9998,10.0004 Z" id="Amazon-Cloudwatch_Logs_Resource-Icon_light-bg" fill="#B0084D"></path>
  </g>
	</svg>

	<svg x="0" y="249">
    <g id="Icon-Resource/Application-Integration/Res_Amazon-Simple-Notification-Service_Queue_48" stroke="none" stroke-width="1" fill="none" fill-rule="evenodd">
        <path d="M37.449,22.261 L37.449,26.221 L35.026,24.207 L37.449,22.261 Z M37.81,29.121 C37.993,29.273 38.22,29.352 38.449,29.352 C38.594,29.352 38.738,29.321 38.874,29.257 C39.224,29.092 39.449,28.74 39.449,28.352 L39.449,20.176 C39.449,19.791 39.228,19.441 38.882,19.275 C38.535,19.108 38.123,19.156 37.823,19.397 L32.819,23.414 C32.585,23.602 32.448,23.885 32.4449503,24.185 C32.442,24.486 32.575,24.771 32.806,24.963 L37.81,29.121 Z M10.527,22.307 L12.951,24.322 L10.527,26.267 L10.527,22.307 Z M9.095,29.253 C9.232,29.32 9.38,29.352 9.527,29.352 C9.751,29.352 9.972,29.277 10.153,29.132 L15.158,25.115 C15.392,24.927 15.529,24.644 15.5320497,24.344 C15.535,24.043 15.402,23.758 15.171,23.566 L10.166,19.407 C9.868,19.16 9.453,19.107 9.102,19.271 C8.752,19.436 8.527,19.788 8.527,20.176 L8.527,28.352 C8.527,28.737 8.748,29.087 9.095,29.253 L9.095,29.253 Z M28.368,34.027 L30.368,34.027 L30.368,14.747 L28.368,14.747 L28.368,34.027 Z M23.121,34.027 L25.121,34.027 L25.121,14.747 L23.121,14.747 L23.121,34.027 Z M17.711,34.027 L19.711,34.027 L19.711,14.747 L17.711,14.747 L17.711,34.027 Z M3.999,35.773 L43.977,35.773 L43.977,13.001 L3.999,13.001 L3.999,35.773 Z M44.977,11 L3,11 C2.447,11 2,11.448 2,12 L2,36.773 C2,37.325 2.447,37.773 3,37.773 L44.977,37.773 C45.53,37.773 45.977,37.325 45.977,36.773 L45.977,12 C45.977,11.448 45.53,11 44.977,11 L44.977,11 Z" id="Amazon-Simple-Notification-Service_Queue" fill="#B0084D"></path>
    </g>
	</svg>
</svg>